<svg xmlns="http://www.w3.org/2000/svg" viewBox="0 0 640 260" role="img" aria-labelledby="title"><title id="title">왼쪽 토론 영역에 친구들의 다양한 발언이 실시간으로 도착하는 모습</title>
<defs><linearGradient id="bg" x2="1" y2="1"><stop stop-color="#14283b"/><stop offset="1" stop-color="#203849"/></linearGradient></defs><rect width="640" height="260" rx="22" fill="url(#bg)"/><rect x="55" y="28" width="530" height="205" rx="17" fill="#102536" stroke="#558394" stroke-width="2"/><path d="M82 62h476" stroke="#3f6575" stroke-width="2"/><circle cx="88" cy="46" r="6" fill="#75dce6"/><circle cx="107" cy="46" r="6" fill="#d7a969"/><circle cx="126" cy="46" r="6" fill="#78a7b3"/>
<circle cx="101" cy="95" r="16" fill="#6fd2db"/><rect x="132" y="77" width="301" height="48" rx="14" fill="#274d5f"/><path d="M151 94h164m-164 16h230" stroke="#c0dfe3" stroke-width="6" stroke-linecap="round"/><circle cx="540" cy="152" r="16" fill="#e3b370"/><rect x="208" y="134" width="301" height="48" rx="14" fill="#524457"/><path d="M230 151h177m-177 16h230" stroke="#eedcc7" stroke-width="6" stroke-linecap="round"/><circle cx="101" cy="207" r="16" fill="#6fd2db"/><rect x="132" y="190" width="240" height="32" rx="14" fill="#274d5f"/><path d="M151 206h184" stroke="#c0dfe3" stroke-width="6" stroke-linecap="round"/><circle cx="532" cy="202" r="15" fill="#75dce6" opacity=".17" stroke="#75dce6" stroke-width="2"/><path d="m526 202 5 5 9-12" fill="none" stroke="#8fe8e9" stroke-width="3" stroke-linecap="round" stroke-linejoin="round"/>
</svg>
